<?xml version="1.0" standalone="no"?>
<!DOCTYPE svg PUBLIC "-//W3C//DTD SVG 20010904//EN"
 "http://www.w3.org/TR/2001/REC-SVG-20010904/DTD/svg10.dtd">
<svg version="1.0" xmlns="http://www.w3.org/2000/svg"
 width="408.000000pt" height="408.000000pt" viewBox="0 0 408.000000 408.000000"
 preserveAspectRatio="xMidYMid meet">
<metadata>
Created by potrace 1.11, written by Peter Selinger 2001-2013
</metadata>
<g transform="translate(0.000000,408.000000) scale(0.100000,-0.100000)"
fill="#000000" stroke="none">
<path d="M1835 4069 c-191 -14 -462 -82 -620 -154 -33 -15 -61 -31 -63 -36 -2
-5 -11 -9 -19 -9 -26 0 -183 -88 -277 -155 -278 -198 -481 -432 -630 -726 -65
-129 -74 -152 -75 -202 0 -35 4 -55 9 -52 6 4 10 -4 10 -16 0 -12 8 -31 17
-41 17 -19 16 -19 -8 -13 -24 6 -25 5 -21 -37 2 -24 9 -49 14 -55 6 -7 7 -21
4 -30 -12 -30 5 -143 20 -143 8 0 14 5 14 10 0 6 5 10 11 10 6 0 18 7 26 16
12 12 29 14 69 10 60 -6 94 -21 141 -63 58 -51 73 -63 73 -55 0 13 -15 28 -32
35 -10 3 -18 12 -18 19 0 22 66 13 92 -12 31 -30 83 -66 75 -53 -8 12 42 -4
83 -26 23 -13 24 -13 11 2 -9 11 -10 17 -2 17 11 0 15 -13 12 -37 -1 -7 3 -13
8 -13 5 0 8 -9 6 -20 -2 -11 0 -20 6 -20 5 0 9 8 9 18 1 15 2 15 12 -2 8 -15
7 -22 -6 -31 -21 -16 -21 -18 13 -43 28 -20 30 -20 28 -3 0 10 -6 17 -13 14
-7 -2 -15 0 -19 6 -3 6 -2 11 3 11 6 0 8 27 5 64 -4 49 -1 64 10 69 9 3 20 -4
27 -19 15 -27 30 -32 30 -9 0 9 -12 27 -27 40 -16 13 -22 25 -15 25 6 0 12 -4
12 -10 0 -5 9 -10 19 -10 11 0 23 -4 26 -10 11 -17 33 -11 40 11 9 28 36 59
53 59 9 0 10 5 2 19 -10 20 4 41 18 27 3 -4 11 9 17 29 5 20 14 36 19 35 17
-3 27 29 16 50 -14 26 2 26 18 -1 11 -17 11 -25 -3 -46 -17 -26 -17 -37 0 -25
16 11 36 62 25 62 -6 0 -10 8 -10 18 0 10 -9 25 -20 35 -24 20 -27 42 -4 33 9
-3 18 -6 20 -6 2 0 4 -8 4 -17 0 -16 2 -16 11 -3 6 8 12 11 15 5 26 -60 51
-75 47 -30 -1 17 3 22 13 18 8 -3 14 0 14 6 0 7 10 1 23 -13 36 -40 62 -42 77
-6 7 16 18 30 25 30 6 0 17 11 23 25 6 14 16 25 22 25 5 0 10 9 10 20 0 11 5
20 11 20 13 0 3 51 -12 60 -4 3 -10 16 -12 28 -2 12 -7 25 -12 29 -4 5 -5 2 0
-6 6 -10 4 -12 -4 -7 -7 5 -10 10 -7 13 3 3 0 15 -6 27 -12 20 -13 25 -16 54
-1 6 -9 12 -17 12 -8 0 -15 7 -15 15 0 8 5 15 11 15 5 0 8 -3 5 -8 -2 -4 6
-12 20 -19 21 -10 23 -9 13 8 -14 26 10 25 39 -1 25 -23 31 -10 6 14 -8 9 -15
26 -14 39 3 36 0 43 -11 27 -9 -13 -10 -13 -6 1 3 9 0 22 -6 28 -8 8 -3 10 21
7 23 -2 32 1 32 11 0 9 6 13 14 10 10 -4 12 0 9 14 -4 15 -2 18 13 12 16 -6
17 -5 6 9 -10 13 -10 18 -1 24 8 5 9 3 4 -6 -5 -8 -3 -11 6 -8 16 5 19 56 5
76 -15 21 2 13 28 -13 34 -34 40 -31 21 8 l-16 32 25 -28 c20 -21 31 -26 51
-21 25 6 25 7 10 31 -25 37 -11 38 19 2 15 -17 30 -28 34 -25 3 4 2 10 -4 14
-16 11 -37 53 -29 60 4 4 12 0 19 -8 25 -32 68 -65 64 -50 -2 9 4 14 15 14 18
-2 18 -1 0 20 -10 11 -22 24 -26 27 -4 3 -1 12 7 19 13 10 19 8 37 -11 20 -24
20 -24 9 -1 -15 31 -3 28 27 -8 23 -28 27 -30 47 -17 12 8 36 18 54 22 27 5
36 3 52 -17 21 -25 26 -18 10 13 -13 24 -9 24 20 -1 25 -22 40 -19 21 4 -9 11
-6 14 15 14 14 0 21 -4 15 -8 -9 -5 -7 -11 5 -21 12 -9 15 -10 10 -1 -9 15 6
16 21 1 7 -7 15 -6 27 6 9 9 20 13 26 10 5 -3 10 1 10 9 0 18 25 21 36 5 4 -8
9 -7 15 2 8 12 10 12 18 1 6 -11 10 -10 15 5 5 13 -1 24 -21 40 -20 17 -24 23
-11 23 9 0 18 -3 20 -7 4 -10 65 -53 74 -53 3 0 1 7 -6 16 -12 13 -10 14 14 3
15 -7 25 -18 22 -25 -3 -7 2 -10 15 -7 11 3 16 10 12 17 -4 6 1 5 10 -3 14
-11 17 -11 17 1 0 8 -4 18 -10 24 -7 7 2 9 25 6 19 -2 35 -8 35 -13 0 -5 7 -9
16 -9 14 0 14 3 4 15 -10 12 -10 19 -2 27 9 9 18 6 36 -11 16 -15 25 -18 28
-10 3 8 8 8 18 -3 17 -16 84 -42 75 -29 -7 12 22 34 35 26 6 -3 8 -11 5 -16
-6 -8 17 -14 39 -10 5 1 22 -3 38 -10 36 -15 47 -5 23 21 -21 23 -11 25 25 5
39 -22 53 -20 39 7 l-12 22 29 -19 c16 -10 34 -26 41 -34 7 -9 12 -11 12 -6 0
6 -6 19 -14 29 -8 11 -15 23 -15 27 0 11 55 -6 82 -25 12 -9 32 -16 43 -17 38
0 205 -297 205 -365 0 -10 5 -26 11 -34 8 -12 9 -10 4 8 -3 12 -2 22 3 22 5 0
12 -9 15 -20 8 -30 27 -24 34 10 3 17 9 30 14 30 5 0 8 3 8 8 -1 4 0 12 1 17
1 6 1 26 0 46 -1 39 16 62 26 35 10 -25 22 -18 16 9 -6 35 6 75 23 75 17 0 20
38 6 87 -6 20 -6 35 0 38 5 4 5 14 -1 26 -6 11 -8 24 -4 30 6 11 -23 38 -41
38 -5 0 -2 -6 8 -13 9 -7 17 -17 17 -22 0 -5 -18 10 -40 34 -22 24 -40 50 -40
59 0 13 3 14 12 5 7 -7 16 -12 21 -12 5 0 1 8 -9 17 -9 10 -24 18 -33 18 -9 0
-17 8 -19 18 -4 18 13 24 23 7 3 -5 15 -10 26 -10 10 0 19 -4 19 -10 0 -5 7
-10 15 -10 8 0 15 4 15 10 0 11 -35 31 -53 29 -20 -2 -57 13 -57 23 0 5 -4 7
-9 4 -5 -3 -11 4 -15 17 -8 32 -8 35 12 41 9 3 1 3 -18 1 l-36 -5 8 86 c11
131 4 151 -67 190 -32 18 -62 31 -67 28 -4 -3 -8 0 -8 6 0 6 -5 8 -11 5 -6 -4
-17 1 -24 11 -11 15 -15 16 -15 4 -1 -10 -4 -9 -10 5 -5 11 -9 14 -9 6 -1 -9
-10 -4 -26 14 -18 18 -32 25 -46 22 -12 -3 -18 -3 -15 0 15 16 -234 97 -375
123 -80 15 -179 19 -231 10 -30 -6 -38 -4 -34 5 3 8 -7 15 -26 19 -51 10 -66
7 -38 -8 14 -8 28 -12 32 -10 3 2 9 0 12 -5 11 -18 -13 -22 -53 -9 -23 7 -41
19 -42 28 0 9 -2 11 -5 3 -4 -9 -13 -9 -30 -2 -14 5 -26 8 -27 8 -1 -1 -47 -5
-102 -10z m410 -29 c-3 -5 -16 -10 -28 -9 -21 0 -21 1 -2 9 28 12 37 12 30 0z
m-230 -40 c-3 -5 -12 -7 -20 -3 -21 7 -19 13 6 13 11 0 18 -4 14 -10z m40 0
c3 -5 -1 -10 -9 -10 -9 0 -16 5 -16 10 0 6 4 10 9 10 6 0 13 -4 16 -10z m-305
-90 c0 -5 -2 -10 -4 -10 -3 0 -8 5 -11 10 -3 6 -1 10 4 10 6 0 11 -4 11 -10z
m-80 -11 c0 -5 -4 -8 -9 -4 -5 3 -12 1 -15 -4 -3 -5 -16 -7 -28 -3 -21 5 -21
6 -2 13 28 11 54 10 54 -2z m130 -13 c8 -2 -11 -4 -43 -5 -32 0 -56 3 -53 7 4
7 57 6 96 -2z m870 4 c0 -5 -5 -10 -11 -10 -5 0 -7 5 -4 10 3 6 8 10 11 10 2
0 4 -4 4 -10z m-664 -30 c24 0 7 -17 -22 -23 -33 -6 -45 20 -18 40 16 12 19
12 22 -1 2 -9 10 -16 18 -16z m808 14 c4 -10 2 -13 -6 -8 -8 5 -9 2 -5 -10 4
-9 3 -15 -1 -12 -5 3 -16 -10 -25 -29 -9 -19 -26 -39 -38 -46 -19 -10 -16 -3
14 40 20 28 37 58 37 66 0 20 16 19 24 -1z m-759 -16 c6 -4 2 -8 -7 -8 -10 0
-18 7 -18 17 0 9 3 12 8 7 4 -5 12 -12 17 -16z m59 16 c9 -3 16 -10 16 -15 0
-15 -37 -10 -50 6 -10 12 -10 15 3 15 8 0 22 -3 31 -6z m-1004 -48 c0 -2 -7
-7 -16 -10 -8 -3 -12 -2 -9 4 6 10 25 14 25 6z m967 -17 c-14 -8 -22 -8 -30 0
-8 8 -3 11 19 11 25 -1 27 -2 11 -11z m90 5 c-3 -3 -12 -4 -19 -1 -8 3 -5 6 6
6 11 1 17 -2 13 -5z m-1077 -68 c0 -5 -7 -3 -15 4 -8 7 -15 22 -15 34 1 20 2
20 15 -4 8 -14 14 -29 15 -34z m1005 35 c-8 -13 -45 -15 -45 -2 0 5 10 11 23
13 27 5 31 3 22 -11z m45 15 c0 -2 -7 -7 -16 -10 -8 -3 -12 -2 -9 4 6 10 25
14 25 6z m43 -3 c-7 -2 -19 -2 -25 0 -7 3 -2 5 12 5 14 0 19 -2 13 -5z m-292
-18 c19 -8 30 -15 24 -15 -83 -7 -123 -15 -144 -28 -14 -9 -23 -12 -19 -7 4 4
3 13 -2 20 -10 11 -7 12 83 18 27 2 20 15 -10 20 -27 4 -27 4 3 6 18 0 47 -6
65 -14z m137 -2 c-10 -2 -26 -2 -35 0 -10 3 -2 5 17 5 19 0 27 -2 18 -5z
m-968 -43 c0 -11 -4 -20 -10 -20 -5 0 -10 9 -10 20 0 11 5 20 10 20 6 0 10 -9
10 -20z m1306 1 c-17 -11 -34 -17 -40 -14 -6 4 3 13 19 19 44 19 54 16 21 -5z
m354 -12 c0 -11 -27 -12 -34 0 -3 4 -3 11 0 14 8 8 34 -3 34 -14z m-1102 -12
c9 -10 0 -13 -43 -14 -31 -1 -52 3 -49 8 3 5 9 7 13 5 6 -4 57 6 67 13 1 1 6
-5 12 -12z m662 -2 c-7 -8 -16 -12 -21 -9 -13 8 -1 24 18 24 13 0 13 -3 3 -15z
m-1380 1 c0 -9 -30 -14 -35 -6 -4 6 3 10 14 10 12 0 21 -2 21 -4z m446 -11
c15 -11 16 -14 3 -15 -8 0 -24 7 -35 15 -15 11 -16 14 -3 15 8 0 24 -7 35 -15z
m159 -5 c3 -5 -1 -10 -10 -10 -9 0 -13 5 -10 10 3 6 8 10 10 10 2 0 7 -4 10
-10z m685 -24 c0 -3 -4 -8 -10 -11 -5 -3 -10 -1 -10 4 0 6 5 11 10 11 6 0 10
-2 10 -4z m-492 -17 c-7 -5 -23 -6 -34 -3 -12 3 -32 1 -43 -6 -12 -6 -21 -7
-21 -1 0 14 20 20 68 19 26 -1 38 -4 30 -9z m-648 -19 c0 -5 -5 -10 -11 -10
-5 0 -7 5 -4 10 3 6 8 10 11 10 2 0 4 -4 4 -10z m520 0 c0 -5 -6 -10 -12 -10
-7 0 -23 -3 -35 -6 -13 -4 -23 -2 -23 4 0 6 12 13 28 15 15 2 30 5 35 6 4 0 7
-3 7 -9z m737 -26 c-3 -3 -12 -4 -19 -1 -8 3 -5 6 6 6 11 1 17 -2 13 -5z
m-840 -40 c-3 -3 -12 -4 -19 -1 -8 3 -5 6 6 6 11 1 17 -2 13 -5z m782 -15
c-16 -10 -23 -4 -14 10 3 6 11 8 17 5 6 -4 5 -9 -3 -15z m-732 5 c-3 -3 -12
-4 -19 -1 -8 3 -5 6 6 6 11 1 17 -2 13 -5z m-403 -103 c18 -7 19 -8 2 -14 -10
-4 -24 -3 -31 3 -6 5 -15 7 -18 3 -4 -3 -7 -1 -7 5 0 13 25 15 54 3z m2017
-48 c13 -17 13 -17 -6 -3 -11 8 -22 16 -24 17 -2 2 0 3 6 3 6 0 17 -8 24 -17z
m-2051 -53 c0 -5 -7 -10 -15 -10 -8 0 -15 5 -15 10 0 6 7 10 15 10 8 0 15 -4
15 -10z m775 -48 c-3 -3 -11 0 -18 7 -9 10 -8 11 6 5 10 -3 15 -9 12 -12z
m1355 -23 c0 -6 -4 -7 -10 -4 -5 3 -10 11 -10 16 0 6 5 7 10 4 6 -3 10 -11 10
-16z m-1410 -9 c0 -5 -4 -10 -10 -10 -5 0 -10 5 -10 10 0 6 5 10 10 10 6 0 10
-4 10 -10z m-162 -40 c7 -11 11 -20 9 -20 -2 0 -12 9 -22 20 -10 11 -14 20 -9
20 5 0 15 -9 22 -20z m-1443 -426 c1 -25 -2 -47 -7 -50 -4 -3 -8 1 -9 8 0 7
-2 22 -4 33 -5 24 5 68 13 60 4 -3 7 -26 7 -51z m1085 -4 c0 -5 -2 -10 -4 -10
-3 0 -8 5 -11 10 -3 6 -1 10 4 10 6 0 11 -4 11 -10z m30 -63 c0 -6 -13 2 -30
18 -16 16 -30 30 -30 33 0 2 14 -6 30 -18 17 -12 30 -26 30 -33z m-85 13 c3
-5 2 -10 -4 -10 -5 0 -13 5 -16 10 -3 6 -2 10 4 10 5 0 13 -4 16 -10z m-1025
-35 c0 -14 -4 -25 -10 -25 -5 0 -10 11 -10 25 0 14 5 25 10 25 6 0 10 -11 10
-25z m878 -31 c-1 -9 -9 -19 -16 -20 -7 -1 -9 0 -4 2 5 3 7 17 4 32 -3 21 -2
24 8 16 6 -7 10 -20 8 -30z m108 -13 c-10 -11 -15 -24 -12 -30 4 -5 2 -12 -3
-15 -14 -9 -25 14 -13 26 6 6 8 17 5 24 -3 9 2 14 17 14 22 0 22 -1 6 -19z
m-53 -13 c4 -12 4 -24 2 -26 -7 -8 -35 20 -35 34 0 23 27 16 33 -8z m-105 -33
c-7 -8 -38 23 -38 38 0 6 10 2 22 -10 12 -13 19 -25 16 -28z m-732 -2 c-10
-10 -19 5 -10 18 6 11 8 11 12 0 2 -7 1 -15 -2 -18z m-46 -24 c0 -4 -7 -6 -15
-3 -8 4 -15 10 -15 15 0 4 7 6 15 3 8 -4 15 -10 15 -15z m45 1 c3 -5 1 -10 -4
-10 -6 0 -11 5 -11 10 0 6 2 10 4 10 3 0 8 -4 11 -10z m-5 -40 c0 -5 -2 -10
-4 -10 -3 0 -8 5 -11 10 -3 6 -1 10 4 10 6 0 11 -4 11 -10z m-40 -15 c7 -8 19
-15 26 -15 8 0 14 -9 14 -20 0 -25 -15 -26 -30 -2 -11 16 -11 16 -6 -1 4 -14
1 -18 -12 -15 -9 2 -22 -3 -29 -11 -9 -13 -10 -10 -6 12 3 16 1 27 -6 27 -6 0
-11 4 -11 10 0 11 32 1 42 -14 5 -7 8 -5 8 5 0 8 -5 20 -12 27 -8 8 -8 12 -1
12 6 0 16 -7 23 -15z m-20 -95 c0 -5 -4 -10 -10 -10 -5 0 -10 5 -10 10 0 6 5
10 10 10 6 0 10 -4 10 -10z m615 -39 c3 -5 1 -12 -5 -16 -5 -3 -10 1 -10 9 0
18 6 21 15 7z"/>
<path d="M3132 3600 c0 -14 2 -19 5 -12 2 6 2 18 0 25 -3 6 -5 1 -5 -13z"/>
<path d="M3260 3421 c0 -5 7 -12 16 -15 14 -5 15 -4 4 9 -14 17 -20 19 -20 6z"/>
<path d="M3196 3381 c-3 -5 1 -14 9 -21 8 -7 15 -9 15 -5 0 4 8 1 18 -6 9 -7
6 -1 -7 14 -27 30 -28 30 -35 18z"/>
<path d="M3265 3276 c3 -16 13 -39 21 -50 20 -30 17 -8 -7 39 -17 34 -19 36
-14 11z"/>
<path d="M1835 3240 c-19 -8 -19 -9 3 -9 12 -1 22 4 22 9 0 6 -1 10 -2 9 -2 0
-12 -4 -23 -9z"/>
<path d="M1932 3204 c-7 -8 -8 -14 -3 -14 10 0 25 19 20 25 -2 1 -10 -3 -17
-11z"/>
<path d="M3242 3060 c0 -14 2 -19 5 -12 2 6 2 18 0 25 -3 6 -5 1 -5 -13z"/>
<path d="M1314 2879 c-2 -4 6 -15 18 -25 19 -17 21 -17 15 -2 -4 11 0 21 11
27 13 7 10 9 -12 8 -15 -1 -30 -5 -32 -8z"/>
<path d="M1180 2585 c1 -12 39 -59 44 -54 2 2 -7 18 -20 34 -13 17 -24 26 -24
20z"/>
<path d="M1096 2572 c-3 -5 3 -17 14 -27 17 -15 20 -16 20 -3 0 19 -26 42 -34
30z"/>
<path d="M3151 2484 c0 -11 3 -14 6 -6 3 7 2 16 -1 19 -3 4 -6 -2 -5 -13z"/>
<path d="M1870 2371 c0 -14 18 -23 31 -15 8 4 7 9 -2 15 -18 11 -29 11 -29 0z"/>
<path d="M1927 2364 c3 -7 9 -11 14 -8 5 3 9 -2 9 -10 0 -9 6 -16 14 -16 8 0
16 -4 18 -10 2 -5 24 -12 51 -15 26 -2 57 -10 70 -17 12 -7 25 -11 29 -10 3 1
9 -6 12 -15 5 -12 2 -14 -16 -8 -24 7 -106 8 -196 2 -29 -2 -55 0 -58 5 -3 4
-10 8 -15 8 -6 0 -8 -3 -6 -7 3 -5 -22 -9 -55 -10 -32 -1 -65 -6 -72 -12 -8
-7 -24 -7 -44 -1 -25 7 -32 6 -32 -5 0 -21 -37 -38 -43 -20 -6 15 -47 40 -46
28 0 -10 51 -51 73 -59 11 -4 16 -1 16 10 0 14 2 14 19 -1 22 -19 17 -45 -7
-35 -14 5 -15 4 -2 -10 8 -9 16 -12 18 -8 3 8 38 0 87 -20 27 -10 153 -47 185
-54 44 -9 80 35 80 98 0 22 5 36 13 36 16 0 65 -31 97 -61 13 -13 27 -23 31
-22 3 1 6 -4 6 -12 0 -8 -5 -12 -11 -8 -6 3 2 -6 18 -21 18 -16 24 -26 15 -26
-8 0 -20 5 -27 12 -8 8 -15 9 -22 2 -7 -7 -2 -15 17 -24 16 -8 43 -25 61 -38
18 -13 38 -22 44 -20 6 2 -6 15 -27 28 -22 13 -33 26 -26 28 7 2 18 -1 24 -7
17 -17 27 -13 28 12 0 20 1 20 8 3 7 -17 8 -18 14 -3 3 9 2 19 -4 22 -5 4 -7
11 -3 16 3 6 12 5 21 -3 14 -11 15 -10 9 12 -4 14 -4 20 1 14 4 -6 18 -14 31
-18 12 -4 22 -12 22 -17 0 -5 7 -9 15 -9 22 0 19 6 -22 43 -25 24 -33 36 -24
41 8 5 14 1 18 -12 3 -11 10 -19 17 -16 7 3 26 -2 42 -11 36 -18 50 -19 35 -2
-6 8 -9 16 -6 19 3 3 -1 11 -10 18 -20 17 -19 40 3 40 13 0 14 2 3 9 -7 5 -11
13 -7 19 3 6 1 14 -5 18 -8 5 -9 3 -4 -6 6 -9 0 -11 -24 -5 -37 8 -41 -2 -5
-15 14 -6 23 -14 20 -19 -9 -14 -43 -2 -50 17 -3 10 -9 23 -12 31 -5 9 -3 11
6 6 9 -5 11 -4 6 3 -4 7 -16 12 -28 12 -11 0 -48 18 -82 41 -33 23 -70 43 -80
45 -10 2 -27 13 -38 24 -20 22 -33 27 -22 8 5 -8 -2 -9 -25 -5 -23 5 -33 3
-38 -9 -5 -13 -8 -13 -24 1 -16 16 -17 16 -12 -4 4 -17 1 -20 -17 -16 -13 2
-25 7 -29 11 -3 4 3 4 14 0 12 -4 16 -4 10 2 -5 5 -24 14 -42 20 -26 9 -31 8
-26 -4z m313 -133 c0 -15 -89 67 -90 82 0 4 20 -9 45 -30 25 -20 45 -44 45
-52z m54 13 c3 -8 2 -12 -4 -9 -6 3 -10 10 -10 16 0 14 7 11 14 -7z m-201 -24
c10 -10 9 -12 -6 -6 -10 3 -25 6 -33 6 -8 0 -14 4 -14 10 0 14 37 7 53 -10z
m224 -12 c-3 -8 -6 -5 -6 6 -1 11 2 17 5 13 3 -3 4 -12 1 -19z m-347 -24 c0
-2 -16 -4 -35 -4 -19 0 -35 4 -35 8 0 4 16 6 35 4 19 -2 35 -6 35 -8z m-150
-44 c0 -11 -4 -20 -9 -20 -11 0 -22 26 -14 34 12 12 23 5 23 -14z m365 10 c3
-5 2 -10 -4 -10 -5 0 -13 5 -16 10 -3 6 -2 10 4 10 5 0 13 -4 16 -10z"/>
<path d="M1740 2360 c-13 -8 -12 -10 3 -10 9 0 17 5 17 10 0 12 -1 12 -20 0z"/>
<path d="M2200 2361 c0 -5 10 -13 23 -17 12 -4 40 -22 61 -40 22 -19 43 -34
48 -34 13 0 9 27 -7 40 -8 7 -12 16 -9 21 3 5 1 9 -5 9 -5 0 -12 -6 -14 -12
-4 -9 -8 -10 -14 -3 -12 15 -61 45 -73 45 -5 0 -10 -4 -10 -9z"/>
<path d="M290 2352 c0 -22 32 -71 43 -66 14 5 57 -31 57 -47 0 -6 5 -7 10 -4
6 3 10 -1 10 -9 0 -9 3 -16 8 -17 4 0 17 -2 30 -5 l23 -4 -23 31 c-13 17 -31
43 -40 57 -10 15 -21 26 -25 24 -4 -2 -9 2 -11 10 -2 9 0 8 7 -2 8 -11 11 -12
11 -2 0 8 5 10 13 6 7 -4 9 -3 4 2 -5 5 -12 9 -15 10 -4 0 -25 6 -47 12 -48
14 -55 15 -55 4z"/>
<path d="M221 2316 c-18 -10 -20 -15 -10 -19 8 -3 5 -6 -8 -6 -30 -1 -29 -7 5
-37 16 -14 20 -22 10 -18 -10 3 -18 10 -18 15 0 5 -6 9 -12 9 -8 0 -14 -17
-15 -45 -1 -25 3 -45 8 -45 5 0 9 11 9 25 0 14 4 25 9 25 5 0 8 -14 6 -30 -3
-21 1 -33 11 -37 18 -6 58 32 49 47 -3 6 -1 10 4 10 6 0 11 7 11 16 0 8 4 12
10 9 5 -3 12 6 16 20 5 19 1 32 -17 51 -26 27 -34 29 -68 10z"/>
<path d="M653 2284 c9 -11 14 -24 10 -29 -5 -4 -3 -5 4 -1 7 3 14 -2 18 -13 5
-17 33 -36 41 -29 4 4 -28 40 -61 68 -22 18 -25 19 -12 4z"/>
<path d="M2987 2277 c-9 -11 -17 -17 -17 -12 0 5 -6 0 -14 -10 -12 -16 -16
-17 -30 -6 -9 7 -22 11 -30 8 -8 -3 -17 -1 -20 6 -3 7 -3 1 0 -13 4 -14 16
-35 27 -47 11 -13 16 -23 10 -23 -6 0 -13 7 -17 15 -3 8 -12 15 -20 15 -8 0
-17 6 -19 13 -3 6 -6 2 -6 -9 -1 -12 6 -25 15 -28 32 -12 5 -18 -30 -6 -41 13
-63 6 -45 -16 10 -12 9 -13 -5 -8 -10 4 -18 0 -22 -10 -3 -9 -13 -16 -21 -16
-22 0 -52 -41 -53 -73 0 -38 28 -90 45 -83 8 3 16 0 19 -7 3 -8 5 -8 5 -1 1 8
17 10 47 6 41 -4 49 -2 65 19 13 17 15 27 7 36 -7 9 -7 13 1 13 6 0 11 16 11
35 0 39 0 39 52 24 41 -11 55 -37 46 -84 -4 -19 -2 -23 7 -15 6 5 15 7 18 3 4
-3 7 1 7 10 0 21 14 22 34 1 13 -12 16 -12 16 -2 0 8 -5 19 -11 25 -14 14 7
13 29 -1 25 -16 24 3 -3 38 -23 31 -25 36 -10 36 14 0 13 4 -8 20 -14 11 -34
20 -45 20 -11 0 -26 8 -33 18 -7 9 -9 14 -4 9 4 -4 17 0 27 10 11 9 18 11 18
5 0 -7 5 -12 11 -12 5 0 8 3 5 8 -2 4 14 8 37 8 100 2 104 4 105 42 1 33 0 34
-13 16 -8 -10 -15 -14 -15 -7 0 7 -6 10 -14 7 -7 -3 -16 2 -19 10 -4 9 -14 16
-24 16 -15 0 -16 -2 -3 -10 8 -5 10 -10 5 -10 -6 0 -21 7 -33 16 -13 9 -29 13
-36 11 -8 -3 -17 -2 -22 3 -5 5 -17 0 -27 -13z m113 -48 c0 -5 -4 -9 -10 -9
-5 0 -10 7 -10 16 0 8 5 12 10 9 6 -3 10 -10 10 -16z m62 -4 c10 6 10 5 2 -4
-14 -15 -54 1 -54 21 0 6 9 3 19 -6 12 -11 25 -15 33 -11z m-132 -5 c0 -5 -2
-10 -4 -10 -3 0 -8 5 -11 10 -3 6 -1 10 4 10 6 0 11 -4 11 -10z m-34 -95 c10
-8 15 -14 9 -14 -5 0 -19 6 -29 14 -11 8 -15 15 -10 15 6 0 19 -7 30 -15z
m-166 -45 c0 -5 -4 -10 -10 -10 -5 0 -10 5 -10 10 0 6 5 10 10 10 6 0 10 -4
10 -10z"/>
<path d="M880 2285 c0 -18 19 -40 26 -32 4 4 0 15 -9 24 -9 10 -17 13 -17 8z"/>
<path d="M2395 2281 c-3 -5 2 -11 10 -15 8 -3 17 -1 20 3 3 5 -2 11 -10 15 -8
3 -17 1 -20 -3z"/>
<path d="M2361 2267 c2 -1 13 -9 24 -17 19 -14 19 -14 6 3 -7 9 -18 17 -24 17
-6 0 -8 -1 -6 -3z"/>
<path d="M2436 2246 c3 -8 13 -17 22 -21 13 -5 13 -2 -3 15 -21 24 -26 25 -19
6z"/>
<path d="M2475 2240 c3 -5 11 -10 16 -10 6 0 7 5 4 10 -3 6 -11 10 -16 10 -6
0 -7 -4 -4 -10z"/>
<path d="M2460 2196 c0 -2 8 -10 18 -17 15 -13 16 -12 3 4 -13 16 -21 21 -21
13z"/>
<path d="M865 2159 c-4 -6 -5 -12 -2 -15 2 -3 7 2 10 11 7 17 1 20 -8 4z"/>
<path d="M470 2115 c-8 -9 -22 -14 -32 -12 -10 3 -18 1 -18 -5 0 -5 -6 -6 -12
-3 -7 4 -4 0 6 -9 10 -8 23 -13 27 -10 5 3 9 0 9 -6 0 -7 -17 -8 -52 -4 l-52
7 18 -29 19 -29 -25 23 c-36 33 -41 27 -8 -9 15 -17 33 -28 39 -25 6 4 21 0
34 -9 29 -19 85 -26 90 -11 8 23 -4 121 -17 134 -10 11 -15 10 -26 -3z"/>
<path d="M2090 2050 c0 -5 5 -10 11 -10 5 0 7 5 4 10 -3 6 -8 10 -11 10 -2 0
-4 -4 -4 -10z"/>
<path d="M560 2021 c0 -6 5 -13 10 -16 6 -3 10 -11 10 -16 0 -6 -4 -8 -9 -5
-5 3 -14 -7 -21 -23 -6 -16 -23 -34 -38 -41 l-27 -12 25 -20 c17 -14 26 -16
28 -8 3 7 -2 16 -9 21 -7 4 -10 11 -6 15 3 4 14 1 24 -7 15 -12 16 -12 10 4
-4 10 -3 16 2 12 19 -11 36 50 25 88 -6 18 -24 24 -24 8z m20 -61 c0 -5 -2
-10 -4 -10 -3 0 -8 5 -11 10 -3 6 -1 10 4 10 6 0 11 -4 11 -10z"/>
<path d="M317 2010 c10 -11 9 -16 -3 -24 -13 -10 -13 -15 5 -38 12 -14 21 -32
22 -40 1 -7 4 -2 8 12 5 17 3 31 -7 43 -17 19 -3 24 16 5 7 -7 12 -8 12 -2 0
10 -25 34 -50 49 -12 6 -13 5 -3 -5z"/>
<path d="M2286 2012 c-3 -6 -1 -14 5 -17 14 -9 20 -2 10 14 -6 8 -11 9 -15 3z"/>
<path d="M2120 2000 c0 -14 28 -19 38 -7 8 9 4 12 -14 13 -13 1 -24 -2 -24 -6z"/>
<path d="M385 1991 c-3 -5 -1 -12 5 -16 5 -3 10 -3 10 1 0 3 8 0 18 -7 14 -11
13 -10 -2 9 -22 25 -23 25 -31 13z"/>
<path d="M2064 1988 c-3 -4 4 -8 15 -8 11 0 22 4 26 9 3 6 -4 9 -16 8 -11 -1
-23 -5 -25 -9z"/>
<path d="M2005 1980 c-4 -6 3 -10 14 -10 25 0 27 6 6 13 -8 4 -17 2 -20 -3z"/>
<path d="M1968 1973 c7 -3 16 -2 19 1 4 3 -2 6 -13 5 -11 0 -14 -3 -6 -6z"/>
<path d="M2727 1940 c3 -11 7 -20 9 -20 2 0 4 9 4 20 0 11 -4 20 -9 20 -5 0
-7 -9 -4 -20z"/>
<path d="M2777 1890 c10 -11 24 -20 32 -20 8 0 3 8 -12 20 -14 11 -28 20 -31
20 -3 0 2 -9 11 -20z"/>
<path d="M467 1865 c5 -26 17 -32 28 -15 3 6 1 10 -4 10 -6 0 -10 5 -8 11 1 6
-3 13 -9 16 -7 2 -10 -5 -7 -22z"/>
<path d="M2830 1861 c0 -10 24 -21 43 -21 7 0 3 7 -7 15 -22 17 -36 19 -36 6z"/>
<path d="M3423 1656 c4 -10 7 -20 7 -22 0 -2 9 -4 20 -4 11 0 20 -6 20 -14 0
-13 13 -23 33 -24 5 0 14 -8 21 -18 12 -15 13 -15 13 0 0 9 -21 31 -46 49 -71
51 -75 53 -68 33z"/>
<path d="M3260 1541 c30 -28 46 -48 35 -44 -20 6 -20 6 -1 -16 l19 -21 -37 15
c-54 23 -76 38 -76 52 0 7 -7 13 -15 13 -9 0 -15 -9 -15 -25 0 -19 4 -23 17
-18 11 4 14 3 9 -5 -9 -14 11 -36 36 -40 10 -2 29 -14 43 -28 22 -22 23 -27
11 -40 -8 -8 -22 -14 -31 -14 -9 0 -14 -4 -10 -10 3 -5 -7 -5 -25 1 -16 6 -33
15 -36 20 -3 5 -10 9 -15 9 -6 0 -8 -4 -4 -9 3 -5 1 -12 -5 -16 -13 -8 -13
-45 0 -45 6 0 10 -5 10 -11 0 -6 -7 -9 -14 -6 -9 4 -17 -1 -20 -11 -36 -126
-50 -169 -56 -177 -4 -5 -13 -32 -20 -60 -7 -27 -21 -61 -30 -75 -9 -14 -22
-40 -29 -59 -6 -19 -17 -42 -25 -50 -7 -9 -16 -28 -20 -43 -3 -15 -15 -30 -26
-33 -11 -4 -17 -11 -14 -17 4 -5 -3 -23 -15 -39 -11 -15 -21 -32 -21 -37 0 -5
-9 -21 -21 -36 -20 -25 -22 -26 -34 -9 -13 17 -14 17 -21 0 -3 -10 -2 -23 5
-30 15 -15 14 -37 -2 -37 -13 0 -30 -34 -46 -94 -12 -45 -10 -52 21 -59 21 -5
21 -5 6 7 -24 18 -23 36 3 36 11 0 17 4 14 10 -3 5 0 10 8 10 12 0 57 -35 149
-116 37 -32 58 -31 28 1 -28 30 -18 33 16 6 25 -20 25 -20 60 1 18 11 34 24
34 29 0 5 6 9 14 9 16 0 131 87 230 174 197 174 424 501 507 731 l18 50 -27
22 c-15 13 -35 23 -45 23 -10 0 -15 5 -12 10 3 6 2 10 -3 10 -5 0 -26 13 -46
29 -21 17 -58 38 -84 47 -26 10 -49 21 -52 24 -3 4 -16 13 -30 20 -22 12 -24
12 -12 -2 11 -14 9 -18 -15 -26 -22 -8 -24 -11 -8 -11 12 -1 27 5 34 12 10 10
16 7 32 -12 11 -13 22 -21 26 -18 7 8 33 -11 33 -23 0 -12 -38 0 -51 16 -15
19 -49 18 -49 -1 0 -8 -4 -15 -9 -15 -5 0 -14 7 -21 15 -16 19 -41 20 -34 1 8
-22 -31 -26 -45 -5 -9 16 -8 19 5 19 8 0 12 -4 9 -10 -3 -5 -1 -10 4 -10 19 0
12 15 -19 42 -31 27 -84 50 -94 41 -6 -6 43 -53 55 -53 5 0 9 -7 9 -15 0 -8
-7 -15 -15 -15 -8 0 -15 4 -15 9 0 5 -13 11 -29 14 -16 3 -36 13 -44 22 -9 8
-22 15 -29 15 -8 0 -18 4 -23 9 -6 5 -21 12 -35 15 -20 6 -13 -4 30 -43z m93
-72 l22 -20 -24 9 c-14 5 -27 14 -29 20 -6 18 6 14 31 -9z"/>
<path d="M206 1556 c4 -10 16 -16 33 -15 20 1 22 2 6 6 -11 3 -26 10 -33 15
-9 8 -11 7 -6 -6z"/>
<path d="M277 1512 c3 -12 9 -22 14 -22 6 0 12 -8 16 -17 10 -29 45 -63 64
-63 14 0 18 -7 16 -30 -2 -24 -6 -30 -22 -28 -12 2 -19 -2 -17 -9 1 -7 0 -13
-3 -13 -6 0 -97 54 -147 87 -42 29 -71 22 -36 -7 16 -14 18 -19 8 -20 -20 0
51 -59 72 -60 29 0 70 -23 57 -31 -13 -7 -4 -29 12 -29 6 0 7 5 4 10 -3 6 -1
10 4 10 6 0 11 -5 11 -11 0 -6 7 -8 16 -5 8 3 13 2 9 -3 -3 -5 1 -11 7 -14 7
-2 10 -8 6 -12 -5 -5 -17 0 -28 10 -11 10 -20 14 -20 8 0 -11 42 -35 56 -32 5
2 24 -5 42 -14 28 -15 32 -16 32 -2 0 8 7 15 15 15 8 0 12 6 9 14 -3 7 3 16
12 20 22 9 32 -2 14 -15 -11 -8 -12 -12 -2 -16 6 -2 12 -9 12 -14 0 -6 -4 -7
-10 -4 -5 3 -10 1 -10 -5 0 -7 -7 -9 -17 -6 -10 4 -14 4 -11 0 4 -4 3 -15 -2
-25 -8 -14 -6 -20 7 -28 30 -16 8 -22 -23 -6 -26 14 -30 13 -42 -2 -10 -14 -9
-20 7 -37 18 -17 22 -18 38 -5 16 13 17 12 5 -3 -9 -12 -10 -18 -2 -23 6 -4 9
-14 5 -22 -3 -9 2 -27 11 -41 13 -20 14 -26 3 -33 -11 -7 -10 -11 6 -24 19
-14 18 -14 -10 -4 -16 6 -31 10 -32 10 -15 -5 -24 2 -20 14 5 11 1 12 -20 4
-20 -7 -30 -6 -44 7 -21 19 -24 13 -8 -17 5 -11 14 -17 20 -14 5 4 9 -3 9 -15
0 -12 4 -18 10 -15 5 3 10 1 10 -5 0 -6 5 -8 10 -5 13 8 100 -61 100 -78 0 -7
-7 -4 -14 6 -7 9 -19 17 -26 17 -9 0 -7 -7 6 -22 17 -19 17 -21 1 -15 -27 10
-7 -20 50 -75 26 -26 58 -60 71 -77 13 -17 67 -67 120 -112 294 -246 633 -399
1002 -453 120 -18 343 -29 336 -17 -3 4 27 6 67 4 40 -3 97 -1 127 4 50 8 55
11 52 32 -3 21 -1 22 26 16 17 -3 32 -2 35 2 3 5 42 8 86 7 45 0 81 3 81 8 0
4 14 8 30 8 17 0 30 4 30 9 0 5 10 7 23 3 20 -5 21 -4 8 11 -16 20 -1 23 18 4
11 -10 13 -9 8 6 -5 14 0 17 26 18 18 1 35 1 40 0 10 -2 9 17 -4 40 -5 11 -7
29 -4 39 5 17 10 18 27 9 18 -9 19 -9 10 7 -7 13 -5 27 8 52 26 47 14 74 -13
30 -11 -18 -28 -40 -38 -49 -10 -9 -16 -18 -13 -21 3 -3 -2 -8 -10 -11 -8 -3
-17 1 -20 9 -9 23 -28 6 -20 -18 6 -19 5 -19 -16 2 -12 12 -25 18 -29 13 -5
-8 -15 -9 -47 -5 -6 1 -28 18 -48 37 -21 19 -42 35 -47 35 -5 0 -9 4 -9 8 0 7
-15 17 -63 40 -4 2 22 -25 58 -61 36 -36 65 -71 65 -78 0 -8 -8 -5 -22 8 -38
33 -134 99 -121 82 7 -8 10 -27 8 -41 -3 -15 -1 -30 5 -33 5 -3 10 1 10 9 0 8
5 18 12 22 7 4 8 3 4 -4 -4 -7 -2 -12 3 -12 6 0 11 -5 11 -10 0 -6 -6 -9 -12
-8 -7 2 -12 -3 -10 -10 1 -9 -5 -8 -23 4 -24 16 -27 16 -41 -2 -14 -18 -15
-18 -5 3 10 19 6 25 -30 53 -22 18 -43 30 -46 26 -4 -3 -1 -6 5 -6 7 0 12 -6
12 -14 0 -8 6 -16 14 -19 7 -3 16 -15 19 -26 4 -18 2 -19 -15 -10 -10 6 -22
17 -25 25 -4 11 -9 12 -19 3 -10 -8 -14 -8 -14 0 0 6 -7 11 -15 11 -8 0 -15 5
-15 10 0 13 -47 13 -55 1 -3 -6 -17 -6 -35 -1 -18 5 -30 5 -30 -1 0 -13 -57
18 -68 37 -5 9 -13 16 -18 16 -5 0 -18 7 -29 14 -17 12 -17 14 -2 14 16 0 16
1 0 20 -10 11 -20 20 -23 20 -13 0 -102 88 -94 92 5 3 3 3 -4 1 -7 -1 -28 11
-45 27 -18 17 -71 63 -119 103 -48 39 -85 77 -83 84 2 7 0 15 -5 18 -6 4 -10
1 -10 -4 0 -6 -5 -11 -10 -11 -7 0 -7 6 -1 19 8 15 7 20 -5 25 -23 9 -31 7
-14 -4 8 -5 12 -11 9 -14 -3 -3 -19 7 -35 22 -17 15 -50 41 -75 57 -24 17 -50
36 -57 43 -7 6 -17 12 -22 12 -4 0 -10 7 -13 14 -4 10 -1 13 9 9 14 -5 14 -3
3 15 -7 11 -16 19 -21 16 -4 -3 -15 4 -25 16 -10 11 -24 20 -32 20 -11 0 -11
-3 2 -18 10 -10 17 -22 17 -25 0 -12 -30 -8 -63 9 l-32 16 35 -32 c19 -17 27
-29 18 -26 -22 7 -22 2 -2 -29 18 -27 5 -35 -16 -10 -16 19 -31 19 -24 1 4
-11 -1 -14 -18 -13 -12 0 -25 4 -28 8 -3 4 -14 1 -24 -7 -18 -13 -18 -14 8
-24 30 -11 39 -28 34 -60 -3 -19 -9 -15 -59 34 -61 61 -70 66 -62 37 3 -10 0
-21 -5 -25 -12 -7 -24 22 -15 37 3 7 2 9 -2 4 -5 -4 -16 0 -26 9 -10 9 -25 14
-34 10 -21 -8 -69 17 -89 46 -10 14 -16 17 -16 8 0 -12 -2 -12 -12 -1 -11 11
-10 14 0 18 8 3 0 12 -20 23 -18 10 -32 24 -30 30 1 7 -3 10 -10 8 -6 -2 -19
3 -28 11 -9 9 -32 27 -50 41 -18 14 -46 37 -62 53 -16 15 -36 27 -44 27 -8 0
-14 5 -14 11 0 13 -246 259 -260 259 -5 0 -23 15 -39 32 -26 28 -30 29 -24 10z
m224 -338 c12 -14 11 -16 -5 -13 -11 2 -21 10 -24 17 -5 17 13 15 29 -4z m-11
-109 c0 -8 -2 -15 -4 -15 -2 0 -6 7 -10 15 -3 8 -1 15 4 15 6 0 10 -7 10 -15z
m135 -43 c-3 -3 -11 0 -18 7 -9 10 -8 11 6 5 10 -3 15 -9 12 -12z m-20 -32 c3
-5 1 -10 -4 -10 -6 0 -11 5 -11 10 0 6 2 10 4 10 3 0 8 -4 11 -10z m-53 -32
c10 -12 18 -25 18 -30 0 -5 4 -7 9 -4 5 4 7 -3 4 -13 -4 -17 -8 -16 -35 15
-17 19 -36 34 -44 34 -23 0 -16 16 8 17 12 1 30 -7 40 -19z m759 -5 c13 -15
12 -15 -8 -4 -24 12 -29 21 -14 21 5 0 15 -7 22 -17z m-586 -19 c20 -15 20
-16 -4 -12 -14 2 -26 9 -29 16 -5 16 9 15 33 -4z m555 6 c0 -5 -2 -10 -4 -10
-3 0 -8 5 -11 10 -3 6 -1 10 4 10 6 0 11 -4 11 -10z m-616 -12 c-3 -4 0 -8 5
-8 14 0 51 -37 44 -43 -2 -3 5 -8 16 -12 12 -3 19 -10 16 -15 -3 -5 3 -15 12
-22 28 -20 47 -48 34 -48 -11 0 -26 14 -115 107 -40 42 -45 52 -28 50 11 0 18
-5 16 -9z m298 -21 c12 -23 -5 -22 -26 2 -16 18 -17 19 -1 17 10 -1 21 -10 27
-19z m34 15 c-3 -2 4 -13 15 -25 10 -11 19 -25 19 -30 0 -16 -59 37 -60 54 0
3 7 6 15 6 8 0 13 -2 11 -5z m398 -31 c-3 -3 -15 6 -27 18 l-22 24 27 -19 c14
-10 24 -21 22 -23z m-501 -24 c6 3 7 1 4 -5 -5 -6 0 -8 12 -5 13 3 26 -5 42
-26 12 -17 31 -31 41 -31 11 0 17 -4 14 -9 -7 -11 -65 -20 -63 -10 2 9 -71 79
-108 103 -14 9 -25 21 -25 27 0 6 17 -3 37 -20 20 -16 41 -27 46 -24z m-234
-11 c55 -59 59 -66 36 -66 -8 0 -14 4 -12 10 3 12 -74 81 -84 74 -4 -2 -7 5
-6 16 1 11 4 20 8 20 3 0 29 -24 58 -54z m142 14 c26 -23 36 -37 24 -33 -24 8
-94 73 -78 73 6 0 30 -18 54 -40z m527 -1 c10 -16 9 -19 -7 -19 -18 0 -51 34
-51 52 0 13 46 -13 58 -33z m-353 -4 c5 0 11 -8 13 -18 3 -16 1 -16 -22 4 -27
24 -35 36 -13 22 6 -4 16 -8 22 -8z m-395 -15 c0 -5 -8 -10 -17 -10 -15 0 -16
2 -3 10 19 12 20 12 20 0z m503 3 c-7 -2 -21 -2 -30 0 -10 3 -4 5 12 5 17 0
24 -2 18 -5z m341 -19 c9 -23 4 -24 -16 -2 -14 14 -15 18 -4 18 8 0 17 -7 20
-16z m-599 -15 c4 -6 4 -13 0 -17 -4 -4 -10 -1 -12 6 -3 6 -9 10 -14 6 -5 -3
-9 0 -9 5 0 14 27 14 35 0z m560 3 c6 -4 16 -15 23 -24 11 -14 11 -16 -7 -11
-12 3 -21 11 -21 18 0 8 -8 16 -17 18 -13 3 -14 5 -3 6 8 0 20 -3 25 -7z
m-875 -17 c7 -9 8 -15 2 -15 -5 0 -12 7 -16 15 -3 8 -4 15 -2 15 2 0 9 -7 16
-15z m70 -17 c0 -5 -5 -6 -12 -2 -8 5 -9 2 -5 -9 4 -10 1 -17 -6 -18 -9 0 -9
-2 1 -6 6 -2 9 -9 6 -14 -3 -6 -11 -6 -20 2 -7 6 -11 16 -7 22 4 6 0 8 -10 4
-10 -3 -17 -2 -17 3 0 6 9 10 21 10 14 0 19 5 16 14 -4 10 0 12 14 9 10 -3 19
-10 19 -15z m316 -13 c3 -8 14 -17 25 -20 10 -4 19 -13 19 -21 0 -16 -16 -19
-25 -4 -4 6 -11 7 -17 4 -7 -5 -8 -2 -3 6 6 10 4 12 -8 7 -13 -5 -17 -1 -17
18 0 27 17 34 26 10z m-283 -1 c9 -9 -4 -35 -14 -28 -5 3 -9 12 -9 20 0 14 12
19 23 8z m492 -4 c3 -5 -1 -10 -9 -10 -9 0 -16 5 -16 10 0 6 4 10 9 10 6 0 13
-4 16 -10z m-395 -10 c0 -5 -2 -10 -4 -10 -3 0 -8 5 -11 10 -3 6 -1 10 4 10 6
0 11 -4 11 -10z m296 -11 c19 -22 19 -22 -3 -10 -24 12 -39 31 -25 31 5 0 17
-10 28 -21z m595 -16 l24 -26 -32 23 c-34 25 -39 30 -25 30 5 0 19 -12 33 -27z
m-426 -13 c27 -30 12 -34 -15 -5 -13 14 -19 25 -13 25 5 0 18 -9 28 -20z m405
-11 c0 -6 -4 -7 -10 -4 -5 3 -10 11 -10 16 0 6 5 7 10 4 6 -3 10 -11 10 -16z
m-650 -14 c0 -8 -2 -15 -4 -15 -2 0 -6 7 -10 15 -3 8 -1 15 4 15 6 0 10 -7 10
-15z m740 -89 c22 -27 -5 -17 -31 10 -21 24 -22 26 -3 16 11 -6 26 -18 34 -26z
m-617 13 l21 -12 -24 -9 c-16 -6 -26 -5 -32 4 -18 29 -3 37 35 17z m41 -55 c3
-8 10 -13 15 -9 5 3 13 0 16 -5 4 -6 18 -15 31 -20 13 -5 24 -17 24 -26 0 -15
-2 -16 -17 -2 -10 9 -27 19 -38 22 -11 4 -33 18 -50 31 -27 23 -28 25 -9 25
12 0 25 -7 28 -16z m626 1 c7 -9 8 -15 2 -15 -5 0 -12 7 -16 15 -3 8 -4 15 -2
15 2 0 9 -7 16 -15z m70 -21 c0 -1 -9 0 -20 3 -11 3 -20 12 -20 19 0 11 5 10
20 -3 11 -10 20 -18 20 -19z m-30 -14 c0 -5 -2 -10 -4 -10 -3 0 -8 5 -11 10
-3 6 -1 10 4 10 6 0 11 -4 11 -10z m-270 -10 c0 -5 -2 -10 -4 -10 -3 0 -8 5
-11 10 -3 6 -1 10 4 10 6 0 11 -4 11 -10z m367 -42 c-2 -24 -14 -23 -27 2 -6
11 -8 20 -4 20 3 0 0 8 -7 17 -11 13 -8 13 13 -2 14 -11 26 -28 25 -37z m683
-210 c0 -14 -19 1 -31 25 -12 22 -12 22 10 3 11 -11 21 -23 21 -28z"/>
<path d="M178 1513 c7 -3 16 -2 19 1 4 3 -2 6 -13 5 -11 0 -14 -3 -6 -6z"/>
<path d="M542 1505 c-16 -8 -20 -15 -12 -20 6 -4 12 -5 13 -4 2 2 9 12 16 22
15 20 14 20 -17 2z"/>
<path d="M360 1501 c0 -11 59 -36 67 -27 3 3 -1 6 -9 6 -9 0 -21 7 -28 15 -14
17 -30 20 -30 6z"/>
<path d="M155 1480 c-3 -5 -1 -10 4 -10 6 0 11 5 11 10 0 6 -2 10 -4 10 -3 0
-8 -4 -11 -10z"/>
<path d="M234 1474 c3 -9 6 -18 6 -20 0 -2 5 -4 10 -4 6 0 10 9 10 20 0 12 -7
20 -16 20 -11 0 -14 -5 -10 -16z"/>
<path d="M460 1480 c-21 -7 -18 -8 18 -9 26 -1 41 3 37 9 -7 11 -19 11 -55 0z"/>
<path d="M2230 1452 c0 -16 96 -102 113 -102 5 0 6 -4 3 -9 -3 -4 6 -13 19
-19 24 -11 36 -52 15 -52 -5 0 -7 -6 -4 -14 3 -8 1 -17 -5 -21 -14 -8 -14 -35
0 -35 5 0 26 -11 46 -25 48 -32 56 -23 12 16 -19 17 -27 27 -19 23 8 -4 26
-16 39 -28 15 -13 25 -17 28 -10 2 7 17 0 36 -17 37 -34 75 -43 150 -35 61 6
86 -7 156 -83 42 -46 42 -51 1 -21 l-29 20 -3 -27 c-2 -21 6 -37 34 -65 41
-43 74 -43 64 -2 -5 17 -2 24 9 24 20 0 20 63 0 80 -8 7 -15 18 -15 24 0 6 7
2 15 -8 11 -14 15 -16 15 -5 0 8 -13 28 -28 44 -16 17 -27 35 -25 41 2 6 -6
19 -17 29 -11 10 -20 29 -20 43 0 14 -3 22 -7 19 -3 -4 -11 3 -17 16 -7 14
-21 22 -38 23 -14 1 -32 4 -41 7 -8 3 -24 -1 -35 -8 -10 -8 -22 -11 -26 -8 -3
3 -6 -1 -6 -11 0 -9 -4 -15 -9 -11 -6 3 -14 -2 -19 -11 -5 -9 -13 -17 -18 -17
-5 -1 -8 -6 -6 -10 1 -5 -2 -6 -8 -2 -6 3 -8 11 -5 16 4 5 2 9 -3 9 -5 0 -13
10 -19 23 -10 21 -9 22 31 19 l41 -4 -40 28 c-22 16 -42 28 -45 27 -3 -1 -20
8 -38 19 -27 17 -36 18 -45 8 -7 -7 -7 -10 -2 -7 6 3 11 -3 12 -13 2 -18 -2
-17 -39 6 -22 14 -46 23 -53 20 -8 -3 -16 5 -20 21 -4 16 -11 23 -20 19 -8 -3
-15 -1 -15 4 0 6 -3 9 -7 9 -24 -4 -43 4 -67 27 -14 15 -26 22 -26 16z m210
-192 c-8 -5 -18 -6 -24 -3 -5 4 -1 10 10 13 24 9 34 2 14 -10z m341 -23 c-13
-13 -26 -3 -16 12 3 6 11 8 17 5 6 -4 6 -10 -1 -17z m-114 -19 c-3 -8 -6 -5
-6 6 -1 11 2 17 5 13 3 -3 4 -12 1 -19z m108 -98 c3 -5 1 -10 -4 -10 -6 0 -11
5 -11 10 0 6 2 10 4 10 3 0 8 -4 11 -10z"/>
<path d="M110 1440 c0 -5 5 -10 10 -10 6 0 10 5 10 10 0 6 -4 10 -10 10 -5 0
-10 -4 -10 -10z"/>
<path d="M293 1396 c15 -14 27 -30 27 -36 0 -5 5 -10 10 -10 20 0 9 18 -27 45
-36 26 -37 26 -10 1z"/>
<path d="M340 1395 c13 -14 26 -25 28 -25 3 0 -5 11 -18 25 -13 14 -26 25 -28
25 -3 0 5 -11 18 -25z"/>
<path d="M132 1379 c5 -16 14 -29 19 -29 6 0 9 -6 8 -12 -3 -25 1 -38 12 -38
8 0 7 6 -2 17 -12 14 -12 16 1 11 10 -3 15 -18 15 -41 0 -38 25 -74 44 -62 6
3 9 11 5 16 -3 5 -9 7 -14 4 -14 -9 -30 29 -20 46 8 12 13 10 32 -9 21 -21 21
-23 3 -17 -14 5 -13 2 5 -8 14 -9 27 -14 31 -11 3 2 16 -6 27 -17 12 -11 22
-15 22 -9 0 11 -19 30 -69 70 -67 53 -103 89 -97 98 3 5 -3 12 -13 15 -17 4
-18 2 -9 -24z"/>
<path d="M2388 1403 c6 -2 9 -10 6 -15 -4 -7 -2 -8 4 -4 6 3 20 -3 30 -15 18
-19 21 -19 29 -4 7 13 15 14 36 6 18 -7 28 -7 33 1 4 7 3 8 -4 4 -7 -4 -12 -3
-12 1 0 13 -62 33 -101 32 -19 0 -28 -3 -21 -6z"/>
<path d="M2550 1355 c0 -8 9 -19 19 -25 14 -7 19 -6 17 3 -5 32 -36 52 -36 22z"/>
<path d="M515 1330 c10 -11 20 -20 23 -20 3 0 -3 9 -13 20 -10 11 -20 20 -23
20 -3 0 3 -9 13 -20z"/>
<path d="M565 1280 c10 -11 20 -20 23 -20 3 0 -3 9 -13 20 -10 11 -20 20 -23
20 -3 0 3 -9 13 -20z"/>
<path d="M2343 1279 c-2 -23 3 -25 10 -4 4 8 3 16 -1 19 -4 3 -9 -4 -9 -15z"/>
<path d="M2290 1260 c-9 -6 -10 -10 -3 -10 6 0 15 5 18 10 8 12 4 12 -15 0z"/>
<path d="M330 1214 c0 -18 24 -42 50 -49 14 -4 23 -6 20 -4 -3 2 -20 17 -38
33 -17 17 -32 25 -32 20z"/>
<path d="M246 1188 c29 -23 31 -24 62 -27 15 -1 15 -3 -2 -16 -21 -16 -10 -21
13 -6 12 8 12 12 2 25 -8 9 -22 16 -32 16 -11 0 -19 5 -19 11 0 5 -4 7 -10 4
-5 -3 -10 -1 -10 4 0 6 -7 11 -16 11 -12 0 -8 -7 12 -22z"/>
<path d="M2046 1197 c-14 -10 -19 -28 -20 -70 l-1 -56 -26 25 c-14 13 -30 24
-37 24 -15 0 -26 -43 -17 -70 4 -11 1 -27 -5 -35 -14 -16 -7 -31 21 -46 20
-10 20 -9 5 19 -16 32 -13 44 11 35 11 -4 12 -8 2 -13 -9 -6 -8 -12 4 -25 15
-15 17 -15 17 -1 0 20 5 20 36 0 20 -13 24 -14 22 -3 -2 8 -7 17 -13 21 -15
11 54 -1 98 -18 21 -8 42 -12 47 -9 4 3 11 -1 13 -7 4 -10 8 -10 15 1 5 7 18
11 28 8 11 -3 36 -8 58 -12 21 -3 42 -7 46 -10 5 -3 19 -1 31 3 16 6 36 3 65
-10 57 -25 189 -32 220 -11 20 13 26 13 51 -1 15 -8 38 -24 50 -35 12 -12 28
-21 35 -21 7 1 2 10 -11 21 -13 11 -22 22 -19 24 9 9 57 -20 67 -40 10 -20 10
-20 10 0 1 14 -16 32 -53 57 -54 35 -55 35 -105 22 -88 -23 -241 -18 -225 7 3
5 2 8 -3 7 -4 -1 -23 6 -41 16 -34 17 -34 17 -27 -4 7 -20 5 -22 -27 -15 -18
4 -45 16 -60 26 -16 12 -28 15 -30 8 -2 -5 -11 -7 -21 -3 -10 3 -16 13 -13 20
3 8 1 14 -4 14 -6 0 -10 -6 -10 -14 0 -18 -25 -27 -47 -19 -10 4 -33 18 -52
32 -19 14 -37 26 -40 26 -3 0 -5 3 -3 8 1 4 -2 7 -8 7 -5 0 -10 16 -10 36 0
20 4 33 10 29 5 -3 7 0 4 8 -3 8 -1 18 5 22 20 12 12 27 -10 20 -15 -5 -19 -4
-15 4 9 15 4 14 -18 -2z m-61 -108 c11 -17 -1 -21 -15 -4 -8 9 -8 15 -2 15 6
0 14 -5 17 -11z"/>
<path d="M2260 1185 c0 -2 10 -10 23 -16 20 -11 21 -11 8 4 -13 16 -31 23 -31
12z"/>
<path d="M2332 1176 c1 -10 8 -17 13 -17 15 1 12 24 -3 29 -9 3 -13 -2 -10
-12z"/>
<path d="M1100 1170 c0 -5 5 -10 11 -10 5 0 7 5 4 10 -3 6 -8 10 -11 10 -2 0
-4 -4 -4 -10z"/>
<path d="M2370 1170 c0 -5 5 -10 12 -10 6 0 20 -7 30 -17 10 -9 18 -11 18 -6
0 10 -42 43 -55 43 -3 0 -5 -4 -5 -10z"/>
<path d="M1976 1154 c-4 -9 -4 -19 -1 -22 2 -3 7 3 11 12 4 9 4 19 1 22 -2 3
-7 -3 -11 -12z"/>
<path d="M2120 1150 c0 -11 2 -20 4 -20 2 0 6 9 9 20 3 11 1 20 -4 20 -5 0 -9
-9 -9 -20z"/>
<path d="M2136 1119 c-9 -16 -12 -29 -7 -29 6 0 11 7 11 16 0 9 5 12 12 8 6
-4 8 -3 4 4 -3 5 -1 12 6 14 8 3 8 7 2 11 -6 3 -18 -7 -28 -24z"/>
<path d="M1130 1125 c0 -12 28 -35 44 -35 16 0 3 18 -15 23 -12 3 -18 10 -14
16 3 6 1 11 -4 11 -6 0 -11 -7 -11 -15z"/>
<path d="M1990 1120 c0 -5 4 -10 9 -10 6 0 13 5 16 10 3 6 -1 10 -9 10 -9 0
-16 -4 -16 -10z"/>
<path d="M1070 1116 c0 -2 8 -10 18 -17 15 -13 16 -12 3 4 -13 16 -21 21 -21
13z"/>
<path d="M2085 1100 c3 -5 11 -10 16 -10 6 0 7 5 4 10 -3 6 -11 10 -16 10 -6
0 -7 -4 -4 -10z"/>
<path d="M1140 1066 c0 -2 8 -10 18 -17 15 -13 16 -12 3 4 -13 16 -21 21 -21
13z"/>
<path d="M2160 1047 c0 -3 11 -12 24 -20 21 -14 25 -15 30 -1 3 8 1 12 -4 9
-5 -3 -19 -1 -30 5 -11 6 -20 9 -20 7z"/>
<path d="M1170 1019 c0 -5 5 -7 10 -4 6 3 10 8 10 11 0 2 -4 4 -10 4 -5 0 -10
-5 -10 -11z"/>
<path d="M1159 997 c6 -8 8 -17 4 -20 -3 -4 4 -7 17 -7 l23 0 -23 20 c-26 23
-38 26 -21 7z"/>
<path d="M1511 984 c0 -11 3 -14 6 -6 3 7 2 16 -1 19 -3 4 -6 -2 -5 -13z"/>
<path d="M1125 980 c-3 -5 -1 -10 4 -10 6 0 11 5 11 10 0 6 -2 10 -4 10 -3 0
-8 -4 -11 -10z"/>
<path d="M2566 973 c-6 -14 -5 -15 5 -6 7 7 10 15 7 18 -3 3 -9 -2 -12 -12z"/>
<path d="M1115 930 c-3 -5 -1 -10 4 -10 6 0 11 5 11 10 0 6 -2 10 -4 10 -3 0
-8 -4 -11 -10z"/>
<path d="M1610 932 c0 -7 -7 -9 -17 -5 -12 5 -8 -4 11 -24 35 -37 53 -34 29 5
-23 37 -23 37 -23 24z"/>
<path d="M395 890 c3 -5 13 -10 21 -10 8 0 14 -7 14 -17 0 -9 3 -14 6 -10 12
12 -8 47 -27 47 -11 0 -17 -4 -14 -10z"/>
<path d="M1530 876 c0 -2 7 -9 15 -16 9 -7 15 -8 15 -2 0 5 -7 12 -15 16 -8 3
-15 4 -15 2z"/>
<path d="M1663 855 c2 -13 39 -41 50 -37 4 1 7 -2 7 -8 0 -5 7 -10 15 -10 8 0
22 -11 31 -25 9 -14 21 -25 28 -25 6 0 -13 23 -42 50 -29 28 -50 54 -47 59 2
5 -6 8 -19 7 -13 0 -24 -5 -23 -11z"/>
<path d="M1596 827 c3 -10 9 -15 12 -12 3 3 0 11 -7 18 -10 9 -11 8 -5 -6z"/>
<path d="M1620 811 c0 -6 9 -16 20 -24 11 -8 17 -17 13 -20 -11 -12 -21 -8
-43 15 -11 12 -20 18 -20 12 0 -11 95 -94 108 -94 5 0 17 -9 27 -20 20 -22 44
-28 26 -7 -6 8 -8 17 -4 21 4 4 1 5 -7 1 -20 -7 -82 47 -75 66 3 9 -5 24 -20
37 -14 12 -25 18 -25 13z"/>
<path d="M1785 790 c3 -5 8 -10 11 -10 2 0 4 5 4 10 0 6 -5 10 -11 10 -5 0 -7
-4 -4 -10z"/>
<path d="M2830 786 c0 -9 5 -16 10 -16 6 0 10 4 10 9 0 6 -4 13 -10 16 -5 3
-10 -1 -10 -9z"/>
<path d="M1820 741 c0 -6 4 -13 10 -16 6 -3 7 1 4 9 -7 18 -14 21 -14 7z"/>
<path d="M2395 740 c3 -5 8 -10 11 -10 2 0 4 5 4 10 0 6 -5 10 -11 10 -5 0 -7
-4 -4 -10z"/>
<path d="M1716 725 c4 -8 8 -15 10 -15 2 0 4 7 4 15 0 8 -4 15 -10 15 -5 0 -7
-7 -4 -15z"/>
<path d="M2280 731 c0 -6 5 -11 10 -11 6 0 10 -4 10 -10 0 -5 -10 -10 -21 -10
-17 0 -19 -3 -10 -14 6 -7 9 -21 5 -30 -4 -11 2 -19 22 -26 16 -6 41 -25 56
-43 15 -18 28 -26 28 -19 0 7 14 12 38 12 27 0 33 3 22 10 -11 7 -11 10 -2 10
7 0 25 -8 39 -17 19 -13 28 -14 31 -5 2 6 8 12 13 12 6 0 7 -4 4 -10 -3 -5 0
-7 8 -4 8 3 18 1 22 -5 3 -6 11 -11 17 -11 6 0 4 8 -5 18 -22 24 -21 32 2 32
11 0 21 6 24 13 3 9 9 9 26 -1 24 -14 25 -12 9 23 -6 14 -17 25 -25 25 -7 0
-13 5 -13 10 0 6 13 8 30 5 17 -3 30 -1 30 5 0 9 -28 15 -57 11 -6 -1 -14 3
-18 9 -10 17 -106 12 -127 -6 -14 -14 -20 -14 -33 -4 -12 10 -15 10 -15 -1 0
-11 -2 -11 -8 -2 -5 7 -21 14 -38 15 -16 1 -39 8 -51 16 -15 9 -23 10 -23 3z"/>
<path d="M2840 730 c8 -5 20 -10 25 -10 6 0 3 5 -5 10 -8 5 -19 10 -25 10 -5
0 -3 -5 5 -10z"/>
<path d="M1760 701 c0 -5 5 -13 10 -16 6 -3 10 -2 10 4 0 5 -4 13 -10 16 -5 3
-10 2 -10 -4z"/>
<path d="M2630 660 c0 -5 5 -10 10 -10 6 0 10 5 10 10 0 6 -4 10 -10 10 -5 0
-10 -4 -10 -10z"/>
<path d="M1760 636 c0 -14 57 -46 82 -46 8 0 23 -7 34 -15 28 -22 41 -18 16 5
-12 11 -31 20 -43 20 -18 0 -19 2 -9 15 11 13 10 14 -5 9 -11 -5 -21 -1 -27 9
-11 20 -48 23 -48 3z"/>
<path d="M1955 509 c-4 -6 -5 -12 -2 -15 2 -3 7 2 10 11 7 17 1 20 -8 4z"/>
<path d="M2810 467 c0 -1 35 -34 78 -72 42 -38 64 -54 47 -35 -16 18 -43 45
-59 59 -15 13 -34 31 -41 38 -12 12 -25 17 -25 10z"/>
<path d="M1975 430 c-3 -5 1 -10 10 -10 9 0 13 5 10 10 -3 6 -8 10 -10 10 -2
0 -7 -4 -10 -10z"/>
<path d="M2303 425 c0 -8 4 -12 9 -9 5 3 6 10 3 15 -9 13 -12 11 -12 -6z"/>
<path d="M2010 410 c0 -6 7 -18 15 -26 9 -10 15 -11 15 -4 0 6 -7 18 -15 26
-9 10 -15 11 -15 4z"/>
<path d="M2320 375 c0 -5 5 -17 10 -25 5 -8 10 -10 10 -5 0 6 -5 17 -10 25 -5
8 -10 11 -10 5z"/>
<path d="M2600 350 c0 -5 5 -10 11 -10 5 0 7 5 4 10 -3 6 -8 10 -11 10 -2 0
-4 -4 -4 -10z"/>
<path d="M2766 324 c-4 -10 -1 -14 6 -12 15 5 23 28 10 28 -5 0 -13 -7 -16
-16z"/>
<path d="M2847 324 c-12 -12 -8 -32 8 -37 8 -4 17 -2 19 2 7 11 -18 44 -27 35z"/>
<path d="M2789 313 c-6 -49 -4 -63 9 -63 11 0 12 3 3 14 -15 18 5 34 22 17 6
-6 16 -11 22 -11 5 1 0 9 -12 19 -12 10 -19 21 -16 25 4 3 -1 6 -10 6 -9 0
-17 -3 -18 -7z"/>
<path d="M2750 291 c0 -5 5 -13 10 -16 6 -3 10 -2 10 4 0 5 -4 13 -10 16 -5 3
-10 2 -10 -4z"/>
</g>
</svg>
